<svg version="1.1" id="Layer_1" xmlns="http://www.w3.org/2000/svg" xmlns:xlink="http://www.w3.org/1999/xlink" x="0px" y="0px"
	 width="100%" viewBox="0 0 1254 1254" enable-background="new 0 0 1254 1254" xml:space="preserve">

<path fill="#143157" opacity="1.000000" stroke="none" 
	d="
M1050.942993,939.987305 
	C1051.656494,972.604675 1028.437622,1008.047302 998.188171,1020.916199 
	C985.113281,1026.478638 971.614685,1029.137939 957.404297,1029.134155 
	C738.325073,1029.075928 519.245728,1028.981201 300.166687,1029.192749 
	C247.015915,1029.244019 209.453400,989.845154 205.259460,944.111450 
	C205.688004,941.892151 205.918686,940.412598 205.918808,938.933105 
	C205.936356,728.370239 205.939362,517.807312 205.900864,307.244415 
	C205.900543,305.498383 205.328842,303.752472 205.023926,302.006500 
	C208.353424,273.502960 222.558212,251.834427 246.568756,236.512360 
	C260.982574,227.314362 276.972870,223.149780 294.000427,223.149170 
	C517.145996,223.141174 740.291504,223.147125 963.437073,223.214294 
	C1009.963013,223.228302 1049.391968,261.023987 1050.836914,307.818115 
	C1050.293579,310.023895 1050.025513,311.498901 1050.025269,312.973938 
	C1050.004272,519.261841 1050.000122,725.549683 1050.042236,931.837585 
	C1050.042603,933.560791 1050.678955,935.283936 1051.018188,937.007080 
	C1051.082520,937.455017 1051.146973,937.902954 1050.937256,938.761963 
	C1050.592651,939.273315 1050.441284,939.431335 1050.464722,939.464172 
	C1050.601440,939.654846 1050.779175,939.816101 1050.942993,939.987305 
M995.494568,499.647034 
	C995.322571,498.762817 995.150574,497.878632 994.754944,496.264252 
	C994.828247,495.511871 994.901489,494.759521 995.529053,493.557007 
	C995.343567,492.035461 995.158081,490.513916 994.749023,488.079010 
	C994.824768,469.054321 994.900452,450.029663 995.314209,430.819946 
	C995.200745,430.544861 995.087280,430.269775 994.747070,429.276306 
	C994.789795,428.529266 994.832520,427.782257 995.402893,426.702942 
	C995.048767,425.810883 994.694641,424.918823 993.993469,423.318207 
	C988.872681,402.692444 974.125916,391.067413 952.903809,391.066864 
	C735.779663,391.061035 518.655579,391.063354 301.531433,391.090546 
	C278.374939,391.093445 261.038208,408.372803 261.034454,431.507019 
	C261.007721,597.307678 261.023315,763.108398 261.051239,928.909058 
	C261.051666,931.394714 261.074036,933.947998 261.604980,936.355286 
	C265.955811,956.081177 278.293060,967.562805 298.291046,972.007629 
	C300.334686,972.332581 302.378204,972.941345 304.421936,972.942017 
	C444.568146,972.987976 584.714355,972.985718 724.860596,972.986206 
	C800.682861,972.986450 876.505188,972.996460 952.327393,972.913147 
	C954.205261,972.911011 956.081970,971.863770 958.687744,970.963440 
	C978.569763,967.398987 989.730042,954.975342 995.028625,935.681824 
	C995.000305,934.449402 994.971924,933.216919 994.762207,931.064209 
	C994.746094,885.533020 994.728088,840.001831 994.724487,794.470642 
	C994.724426,793.316711 994.883240,792.162842 995.536743,790.529663 
	C995.346436,788.683350 995.156067,786.836975 994.738647,784.078186 
	C994.735291,710.515259 994.713379,636.952393 994.740234,563.389465 
	C994.747925,542.261475 994.896667,521.133484 995.494568,499.647034 
M331.596527,329.086761 
	C339.499939,320.546722 342.747040,310.685913 339.803436,299.209015 
	C335.528198,282.540222 318.538696,272.117218 302.168762,276.006866 
	C285.200592,280.038635 274.576172,296.806732 278.157837,313.619843 
	C282.915314,335.952637 311.335632,348.247559 331.596527,329.086761 
M506.972992,337.693207 
	C511.752869,337.739868 516.671814,338.544189 521.287598,337.696808 
	C537.793274,334.666565 549.148071,317.175873 545.689453,300.865082 
	C542.016357,283.542908 525.103394,272.299835 508.248383,275.975739 
	C494.239288,279.030945 483.812653,291.062988 482.944885,305.175201 
	C482.045959,319.794128 490.997803,332.220154 506.972992,337.693207 
M433.352112,329.853455 
	C436.074371,325.528748 439.495972,321.486664 441.380341,316.823364 
	C445.980103,305.440033 441.757965,291.092377 432.119324,282.888489 
	C421.785278,274.092773 407.821320,272.715851 396.292877,279.355835 
	C385.094635,285.805634 378.410370,299.360229 380.485870,311.409790 
	C384.889160,336.973694 412.361755,346.904755 433.352112,329.853455 
z"/>
<path fill="#2F4769" opacity="1.000000" stroke="none" 
	d="
M204.896118,302.393311 
	C205.328842,303.752472 205.900543,305.498383 205.900864,307.244415 
	C205.939362,517.807312 205.936356,728.370239 205.918808,938.933105 
	C205.918686,940.412598 205.688004,941.892151 205.292114,943.682739 
	C204.717911,939.853516 204.153824,935.713318 204.152954,931.572937 
	C204.109650,725.295227 204.111557,519.017578 204.141495,312.739868 
	C204.141983,309.419922 204.550293,306.100006 204.896118,302.393311 
z"/>
<path fill="#041D41" opacity="1.000000" stroke="none" 
	d="
M1051.132324,936.549683 
	C1050.678955,935.283936 1050.042603,933.560791 1050.042236,931.837585 
	C1050.000122,725.549683 1050.004272,519.261841 1050.025269,312.973938 
	C1050.025513,311.498901 1050.293579,310.023895 1050.746338,308.263489 
	C1051.149292,332.955536 1051.319824,357.932922 1051.323242,382.910309 
	C1051.348389,565.805786 1051.340454,748.701294 1051.338501,931.596741 
	C1051.338501,933.095215 1051.278320,934.593750 1051.132324,936.549683 
z"/>
<path fill="#041D41" opacity="1.000000" stroke="none" 
	d="
M1051.035034,939.744873 
	C1050.779175,939.816101 1050.601440,939.654846 1050.464722,939.464172 
	C1050.441284,939.431335 1050.592651,939.273315 1050.828003,939.087280 
	C1051.037598,939.168457 1051.082275,939.335449 1051.035034,939.744873 
z"/>z

<path fill="#001840" opacity="1.000000" stroke="none" 
	d="
M298.163635,971.640991 
	C399.123627,971.288818 500.211029,971.302734 601.298462,971.317810 
	C718.211365,971.335205 835.124268,971.354187 952.037170,971.365784 
	C953.701599,971.365906 955.366089,971.277893 957.494873,971.267456 
	C956.081970,971.863770 954.205261,972.911011 952.327393,972.913147 
	C876.505188,972.996460 800.682861,972.986450 724.860596,972.986206 
	C584.714355,972.985718 444.568146,972.987976 304.421936,972.942017 
	C302.378204,972.941345 300.334686,972.332581 298.163635,971.640991 
z"/>
<path fill="#002148" opacity="1.000000" stroke="none" 
	d="
M995.252319,790.769287 
	C994.906738,789.284790 994.845581,787.560730 994.875061,785.413635 
	C995.156067,786.836975 995.346436,788.683350 995.252319,790.769287 
z"/>
<path fill="#002148" opacity="1.000000" stroke="none" 
	d="
M995.251892,493.782074 
	C994.914246,492.609894 994.853760,491.212677 994.882935,489.403900 
	C995.158081,490.513916 995.343567,492.035461 995.251892,493.782074 
z"/>
<path fill="#002148" opacity="1.000000" stroke="none" 
	d="
M995.139038,426.869080 
	C994.666626,426.239319 994.458069,425.443420 994.295044,424.337097 
	C994.694641,424.918823 995.048767,425.810883 995.139038,426.869080 
z"/>
<path fill="#002148" opacity="1.000000" stroke="none" 
	d="
M994.675903,935.781372 
	C994.434998,934.829956 994.546875,933.778870 994.801147,932.356201 
	C994.971924,933.216919 995.000305,934.449402 994.675903,935.781372 
z"/>
<path fill="#002148" opacity="1.000000" stroke="none" 
	d="
M995.237671,499.826294 
	C994.921326,499.249359 994.862000,498.493225 994.890625,497.365723 
	C995.150574,497.878632 995.322571,498.762817 995.237671,499.826294 
z"/>
<path fill="#002148" opacity="1.000000" stroke="none" 
	d="
M995.145203,430.912476 
	C994.924622,430.836700 994.873108,430.668427 994.897644,430.247437 
	C995.087280,430.269775 995.200745,430.544861 995.145203,430.912476 
z"/>
<path fill="#143257" opacity="1.000000" stroke="none" 
	d="
M609.004578,551.016479 
	C606.923096,575.072876 605.201904,599.167297 602.669800,623.176208 
	C599.439148,653.808594 596.045898,684.440125 591.822754,714.947388 
	C586.796570,751.256531 580.101135,787.284485 567.861267,822.003113 
	C562.701660,836.638306 556.759094,850.889893 546.262756,862.794189 
	C527.713074,883.831726 493.871338,884.060181 476.691193,862.933655 
	C467.077332,851.111328 465.277130,837.494995 469.791901,823.355530 
	C471.879517,816.817566 474.961456,810.064453 479.332794,804.874573 
	C508.560181,770.174316 523.924866,729.613586 531.835449,685.548218 
	C538.739197,647.091858 541.935547,608.262451 544.831970,569.380066 
	C545.274841,563.434265 545.651428,557.483643 546.057861,551.547363 
	C505.747925,548.074341 470.032013,564.953491 465.134216,609.561035 
	C463.990875,619.974243 457.050507,626.431946 446.614105,626.764038 
	C442.951416,626.880554 439.279144,626.893677 435.616608,626.781189 
	C424.387085,626.436401 417.330719,619.169556 417.293213,608.031616 
	C417.220062,586.320007 420.073944,565.197937 429.857330,545.465637 
	C446.077423,512.750854 472.684357,494.487244 508.489838,489.238220 
	C514.730042,488.323425 521.101257,487.933533 527.412537,487.928101 
	C617.901855,487.849884 708.391296,487.920288 798.880554,487.836823 
	C811.789307,487.824921 821.621277,492.984863 827.436401,504.411194 
	C833.442261,516.212280 832.519348,528.022034 824.689636,538.832764 
	C818.978577,546.718201 811.070618,550.866516 801.169434,550.858521 
	C787.337769,550.847351 773.506042,550.858948 759.674377,550.860779 
	C757.867126,550.861023 756.059814,550.860840 753.938232,550.860840 
	C753.050171,564.676941 752.153625,578.090393 751.331726,591.508362 
	C748.265564,641.561340 744.856262,691.598145 742.451172,741.683044 
	C741.901550,753.129333 743.785461,764.996094 746.453308,776.216614 
	C749.798157,790.284180 758.817017,800.352600 773.862671,802.673889 
	C788.966614,805.004272 802.044861,800.026245 810.350952,787.156677 
	C817.590515,775.939392 832.570679,775.111511 842.576721,778.021179 
	C850.662170,780.372314 854.894104,788.138367 853.799744,796.445923 
	C847.155090,846.885315 802.319153,882.961060 752.094360,878.279785 
	C713.323364,874.666016 685.255005,849.294250 675.993225,809.956421 
	C670.612610,787.103394 670.836304,764.042969 672.359924,740.873535 
	C674.600769,706.797180 676.836365,672.720520 679.107056,638.646179 
	C681.034119,609.728455 683.007812,580.813904 684.872070,551.069702 
	C683.796509,549.828369 682.810730,549.057617 681.822632,549.054565 
	C658.669678,548.983887 635.516357,548.967957 612.363708,549.079163 
	C611.240906,549.084595 610.124146,550.342041 609.004578,551.016479 
z"/>
<path fill="#002148" opacity="1.000000" stroke="none" 
	d="
M609.467163,550.937073 
	C610.124146,550.342041 611.240906,549.084595 612.363708,549.079163 
	C635.516357,548.967957 658.669678,548.983887 681.822632,549.054565 
	C682.810730,549.057617 683.796509,549.828369 684.887512,550.635376 
	C659.971069,550.972107 634.950378,550.914917 609.467163,550.937073 
z"/>
</svg>